<svg xmlns="http://www.w3.org/2000/svg" width="47.976" height="47.986">
  <path fill="none" d="M0 0h47.976v47.986H0z"/>
  <path fill="#FAFAFF" d="M47.56 45.54L35.9 33.877c3.128-3.597 5.02-8.29 5.02-13.417C40.92 9.173 31.74 0 20.46 0 9.173 0 0 9.182 0 20.46c0 11.28 9.182 20.46 20.46 20.46 5.13 0 9.82-1.892 13.418-5.02l11.66 11.66c.278.277.65.426 1.012.426s.734-.138 1.01-.425c.554-.55.554-1.464 0-2.02zM2.863 20.46c0-9.703 7.895-17.587 17.588-17.587 9.707 0 17.59 7.895 17.59 17.588 0 9.697-7.883 17.6-17.59 17.6-9.69 0-17.585-7.893-17.585-17.6z"/>
</svg>
