<svg xmlns="http://www.w3.org/2000/svg" width="157.499" height="182.063">
  <path fill="none" d="M0 0h157.5v182.063H0z"/>
  <defs>
    <linearGradient id="b" x1="-1.03" x2="159.098" y1="140.144" y2="135.81" gradientUnits="userSpaceOnUse">
      <stop offset="0" stop-color="#FFFFFE"/>
      <stop offset=".5" stop-color="#CED19D"/>
      <stop offset="1" stop-color="#A1A854"/>
    </linearGradient>
    <clipPath id="a">
      <path d="M156.5 91.86c.167 1.79.276 3.59.324 5.4.594 21.886-7.533 43.118-22.592 59.016-15.057 15.897-35.818 25.163-57.705 25.757-21.89.592-43.12-7.534-59.02-22.593-7.3-6.914-13.2-15.03-17.507-23.908 3.582 5.45 7.806 10.515 12.62 15.073 16.422 15.555 38.35 23.95 60.963 23.338 22.61-.613 44.054-10.184 59.61-26.606 14.293-15.09 22.54-34.83 23.308-55.477z"/>
    </clipPath>
  </defs>
  <path fill="#A6AE5E" d="M29.68 17.943C46.47 5.243 72.327-1.694 88.45.356L85 92.3 7.45 43.48c5.51-9.866 13.042-18.587 22.23-25.535"/>
  <path fill="#7D8921" d="M10.818 59.147c8.948-19.865 25.415-35.34 45.772-43.022 20.357-7.68 44.514-6.05 64.356 2.953 1.987.902 8.457 4.688 10.273 6.18L85.01 92.39l-81.445-.008c.11-11.274 2.534-22.766 7.25-33.235"/>
  <g clip-path="url(#a)">
    <path fill="url(#b)" d="M76.527 182.033c-21.89.592-43.12-7.533-59.02-22.593-7.3-6.914-13.2-15.03-17.507-23.908 3.582 5.45 7.806 10.515 12.62 15.073 16.422 15.555 38.35 23.95 60.963 23.338 22.61-.613 44.054-10.184 59.61-26.606 14.293-15.09 22.54-34.83 23.308-55.477.17 1.79.28 3.59.328 5.4.594 21.886-7.533 43.118-22.592 59.016-15.057 15.897-35.818 25.163-57.705 25.757z"/>
  </g>
  <path fill="#FFFFFE" d="M157.5 92.218c0 39.59-32.312 71.72-72.123 71.72-39.81 0-72.122-32.13-72.122-71.72 0-39.59 32.31-71.72 72.122-71.72 39.81 0 72.122 32.13 72.122 71.72"/>
</svg>
