<svg xmlns="http://www.w3.org/2000/svg" width="146.845" height="146.845">
  <path fill="none" d="M0 0h146.845v146.845H0z"/>
  <path fill="#FFF" d="M73.422 0C32.874 0 0 32.872 0 73.422s32.874 73.423 73.422 73.423c40.55 0 73.423-32.873 73.423-73.423C146.845 32.872 113.97 0 73.422 0zm37.244 81.363c3.422 3.343 7.043 6.488 10.115 10.176 1.37 1.63 2.65 3.31 3.62 5.21 1.4 2.7.14 5.67-2.28 5.83l-15.04-.01c-3.88.32-6.97-1.248-9.58-3.9-2.08-2.12-4.01-4.38-6.01-6.57-.82-.9-1.68-1.744-2.71-2.41-2.05-1.334-3.83-.925-5.002 1.217-1.2 2.18-1.47 4.597-1.586 7.024-.162 3.547-1.232 4.474-4.79 4.64-7.605.357-14.82-.797-21.526-4.63-5.915-3.382-10.494-8.155-14.484-13.56C33.61 73.86 27.66 62.3 22.31 50.405c-1.2-2.68-.32-4.11 2.634-4.17 4.91-.092 9.82-.08 14.725-.002 1.994.03 3.32 1.174 4.084 3.06 2.653 6.527 5.905 12.737 9.98 18.497 1.087 1.53 2.196 3.06 3.775 4.14 1.74 1.194 3.07.8 3.89-1.147.53-1.235.76-2.557.87-3.88.39-4.54.44-9.077-.24-13.597-.42-2.83-2.01-4.656-4.83-5.19-1.44-.27-1.22-.804-.53-1.624 1.21-1.42 2.35-2.3 4.62-2.3h16.99c2.68.523 3.28 1.73 3.65 4.423l.014 18.886c-.03 1.048.52 4.14 2.4 4.826 1.5.495 2.49-.71 3.39-1.66 4.07-4.326 6.98-9.43 9.58-14.714 1.15-2.33 2.14-4.74 3.1-7.154.71-1.79 1.82-2.667 3.84-2.637l16.36.02c.485 0 .974.005 1.45.087 2.76.472 3.516 1.66 2.66 4.35-1.34 4.227-3.95 7.75-6.5 11.28-2.735 3.78-5.65 7.425-8.358 11.22-2.485 3.47-2.29 5.218.8 8.23z"/>
</svg>
