<svg xmlns="http://www.w3.org/2000/svg" width="41.883" height="59.799">
  <path fill="none" d="M0 0h41.883v59.8H0z"/>
  <g fill="#FFF">
    <path d="M21.137 13.105c-4.215 0-7.645 3.43-7.645 7.645 0 4.214 3.43 7.644 7.645 7.644 4.214 0 7.644-3.43 7.644-7.644 0-4.215-3.43-7.645-7.64-7.645zm0 13.105c-3.01 0-5.46-2.45-5.46-5.46s2.45-5.46 5.46-5.46 5.46 2.45 5.46 5.46-2.45 5.46-5.46 5.46z"/>
    <path d="M35.752 6.134C31.797 2.18 26.537 0 20.942 0 15.35 0 10.09 2.18 6.136 6.134c-7.32 7.32-8.23 21.09-1.97 29.434l16.778 24.23 16.754-24.196c6.285-8.377 5.375-22.15-1.945-29.468zm.174 28.19l-14.983 21.64L5.937 34.29C.26 26.722 1.073 14.284 7.68 7.678c3.543-3.542 8.253-5.494 13.263-5.494s9.72 1.952 13.265 5.494c6.607 6.606 7.42 19.043 1.718 26.647z"/>
  </g>
</svg>
