<svg xmlns="http://www.w3.org/2000/svg" width="157.356" height="182.064">
  <path fill="none" d="M0 0h157.356v182.064H0z"/>
  <defs>
    <linearGradient id="b" x1="-1.022" x2="158.949" y1="140.139" y2="135.805" gradientUnits="userSpaceOnUse">
      <stop offset="0" stop-color="#FFFFFE"/>
      <stop offset=".5" stop-color="#BCD8CB"/>
      <stop offset="1" stop-color="#81B9A8"/>
    </linearGradient>
    <clipPath id="a">
      <path d="M156.348 91.863c.165 1.79.272 3.59.322 5.398.592 21.89-7.527 43.12-22.57 59.02-15.043 15.898-35.78 25.163-57.65 25.756-21.867.593-43.077-7.533-58.96-22.59C10.196 152.526 4.3 144.41 0 135.532c3.578 5.45 7.8 10.517 12.607 15.074 16.405 15.556 38.314 23.95 60.903 23.337 22.59-.613 44.012-10.184 59.55-26.605 14.28-15.09 22.52-34.83 23.288-55.477z"/>
    </clipPath>
  </defs>
  <path fill="#89BDAD" d="M29.648 17.943C46.424 5.24 72.255-1.693 88.36.355L84.915 92.3 7.44 43.475c5.505-9.864 13.03-18.584 22.208-25.533"/>
  <path fill="#50A28C" d="M10.825 59.152c8.94-19.865 25.39-35.34 45.728-43.02 20.337-7.682 44.47-6.05 64.292 2.952 1.985.9 8.45 4.688 10.263 6.178l-46.16 67.133-81.365-.01c.112-11.273 2.53-22.764 7.242-33.233"/>
  <g clip-path="url(#a)">
    <path fill="url(#b)" d="M76.45 182.033c-21.867.593-43.077-7.533-58.96-22.59C10.196 152.525 4.3 144.41 0 135.533c3.578 5.45 7.8 10.516 12.607 15.073 16.405 15.556 38.314 23.95 60.903 23.337 22.59-.613 44.012-10.184 59.55-26.605 14.28-15.09 22.52-34.83 23.288-55.477.165 1.79.272 3.59.322 5.4.592 21.89-7.527 43.12-22.57 59.018-15.043 15.898-35.78 25.163-57.65 25.756z"/>
  </g>
  <path fill="#FFFFFE" d="M157.356 92.214c0 39.59-32.28 71.72-72.05 71.72-39.773 0-72.052-32.13-72.052-71.72 0-39.59 32.28-71.72 72.05-71.72 39.773 0 72.052 32.13 72.052 71.72"/>
</svg>
