<svg xmlns="http://www.w3.org/2000/svg" width="157.506" height="182.063">
  <path fill="none" d="M0 0h157.506v182.063H0z"/>
  <defs>
    <linearGradient id="b" x1="-1.023" x2="159.1" y1="140.139" y2="135.804" gradientUnits="userSpaceOnUse">
      <stop offset="0" stop-color="#FFFFFE"/>
      <stop offset=".5" stop-color="#BCD8CB"/>
      <stop offset="1" stop-color="#81B9A8"/>
    </linearGradient>
    <clipPath id="a">
      <path d="M156.496 91.863c.166 1.79.273 3.59.323 5.397.59 21.89-7.54 43.12-22.597 59.017-15.058 15.898-35.816 25.162-57.705 25.756-21.888.592-43.118-7.533-59.016-22.592-7.3-6.91-13.202-15.03-17.507-23.903 3.58 5.45 7.805 10.517 12.62 15.074 16.42 15.556 38.35 23.95 60.96 23.337 22.61-.613 44.052-10.183 59.606-26.605 14.294-15.09 22.54-34.83 23.31-55.474z"/>
    </clipPath>
  </defs>
  <path fill="#89BDAD" d="M29.676 17.943C46.47 5.24 72.324-1.693 88.446.355L84.996 92.3 7.446 43.475c5.51-9.864 13.042-18.584 22.23-25.533"/>
  <path fill="#50A28C" d="M10.835 59.152c8.95-19.865 25.414-35.34 45.772-43.02 20.356-7.682 44.513-6.05 64.353 2.952 1.987.9 8.457 4.688 10.273 6.178L85.03 92.395l-81.444-.01c.112-11.273 2.534-22.764 7.25-33.233"/>
  <g clip-path="url(#a)">
    <path fill="url(#b)" d="M76.523 182.033c-21.888.592-43.118-7.533-59.016-22.592-7.3-6.91-13.202-15.03-17.507-23.903 3.582 5.45 7.806 10.517 12.62 15.074 16.42 15.556 38.35 23.95 60.96 23.337 22.61-.613 44.053-10.183 59.607-26.605 14.293-15.09 22.54-34.83 23.31-55.474.165 1.79.272 3.59.322 5.397.59 21.89-7.54 43.12-22.597 59.02-15.058 15.897-35.816 25.16-57.705 25.755z"/>
  </g>
  <path fill="#FFFFFE" d="M157.506 92.213c0 39.59-32.31 71.72-72.12 71.72s-72.12-32.13-72.12-71.72c0-39.59 32.31-71.72 72.12-71.72s72.12 32.13 72.12 71.72"/>
</svg>
