<svg xmlns="http://www.w3.org/2000/svg" width="131.552" height="75.652">
  <path fill="none" d="M0 0h131.552v75.652H0z"/>
  <defs>
    <linearGradient id="b" x1="-.864" x2="133.434" y1="40.493" y2="36.857" gradientUnits="userSpaceOnUse">
      <stop offset="0" stop-color="#FFFFFE"/>
      <stop offset=".5" stop-color="#E0A48C"/>
      <stop offset="1" stop-color="#C55D48"/>
    </linearGradient>
    <clipPath id="a">
      <path d="M131.256 0c.14 1.5.23 3.01.27 4.527.5 18.358-6.317 36.164-18.947 49.498C99.95 67.36 82.54 75.13 64.18 75.627c-18.36.497-36.165-6.318-49.5-18.948C8.56 50.88 3.613 44.07 0 36.623c3.004 4.572 6.548 8.82 10.584 12.643C24.356 62.315 42.75 69.355 61.714 68.84c18.962-.514 36.947-8.54 49.993-22.314 11.988-12.654 18.905-29.21 19.55-46.526z"/>
    </clipPath>
  </defs>
  <g clip-path="url(#a)">
    <path fill="url(#b)" d="M64.182 75.627c-18.36.497-36.165-6.318-49.5-18.948C8.56 50.88 3.612 44.07 0 36.623c3.004 4.572 6.548 8.82 10.584 12.643C24.356 62.315 42.75 69.355 61.714 68.84c18.962-.514 36.947-8.54 49.993-22.314 11.988-12.654 18.905-29.21 19.55-46.526.138 1.5.23 3.01.27 4.527.498 18.358-6.318 36.164-18.948 49.498C99.95 67.36 82.54 75.13 64.18 75.627z"/>
  </g>
</svg>
