<svg xmlns="http://www.w3.org/2000/svg" width="162.151" height="182.063">
  <path fill="none" d="M0 0h162.15v182.063H0z"/>
  <defs>
    <linearGradient id="a" x1="-1.055" x2="163.796" y1="140.138" y2="135.804" gradientUnits="userSpaceOnUse">
      <stop offset="0" stop-color="#FFFFFE"/>
      <stop offset=".5" stop-color="#DDB9C4"/>
      <stop offset="1" stop-color="#BF7F99"/>
    </linearGradient>
  </defs>
  <path fill="#C3869E" d="M30.553 17.943C47.84 5.24 74.46-1.693 91.057.355L87.507 92.3 7.667 43.476c5.674-9.864 13.428-18.584 22.886-25.533"/>
  <path fill="#A8567A" d="M11.152 59.146c9.213-19.866 26.165-35.342 47.122-43.022s45.827-6.05 66.254 2.953c2.046.9 8.707 4.688 10.574 6.178L87.536 92.388 3.688 92.38c.114-11.275 2.61-22.766 7.464-33.234"/>
  <path fill="url(#a)" d="M78.782 182.033c-22.534.594-44.39-7.533-60.757-22.592C10.51 152.53 4.433 144.41 0 135.536c3.69 5.45 8.038 10.517 12.992 15.075 16.906 15.554 39.484 23.95 62.762 23.335 23.277-.613 45.354-10.183 61.368-26.605 14.714-15.09 23.205-34.83 23.995-55.477.172 1.79.284 3.59.334 5.398.615 21.89-7.752 43.12-23.255 59.02-15.503 15.898-36.874 25.16-59.41 25.756z"/>
  <path fill="#FFFFFE" d="M162.15 92.213c0 39.59-33.263 71.72-74.248 71.72-40.985 0-74.25-32.13-74.25-71.72 0-39.59 33.265-71.72 74.25-71.72s74.25 32.13 74.25 71.72"/>
</svg>
