<svg xmlns="http://www.w3.org/2000/svg" width="89.973" height="89.974">
  <path fill="none" d="M0 0h89.973v89.974H0z"/>
  <path fill="#1B4863" d="M32.08 16.755v13.853h3.092v-10.65h19.626v10.65h3.092V16.755H32.08"/>
  <path fill="#1B4863" d="M54.78 19.258h-20.4v10.65h-2.3v.7h3.092v-10.65H54.78v-.7m2.318-2.503V29.91h-2.3v.698h3.092V16.755h-.792M17.908 24h7.676v1.95h-7.676zm46.477 0h7.678v1.95h-7.678z"/>
  <path fill="#DE493F" d="M13.905 24.95h62.162v42.877H13.905z"/>
  <path fill="#FFFFFE" d="M54.904 42.366H49.01v-5.89h-8.042v5.89H35.07v8.04h5.898v5.89h8.042v-5.89h5.894v-8.04"/>
  <path fill="#FFFEFE" d="M44.986 32.423c-7.7 0-13.965 6.265-13.965 13.965s6.27 13.965 13.97 13.965 13.967-6.265 13.967-13.965S52.69 32.423 44.99 32.423zm0 29.048c-8.317 0-15.083-6.76-15.083-15.08s6.767-15.08 15.083-15.08S60.07 38.07 60.07 46.388 53.303 61.47 44.986 61.47"/>
  <path fill="#DE493F" d="M16.62 67.827V27.663h59.447V24.95H13.905v42.877h2.714"/>
  <path fill="#DE493F" d="M73.354 27.662v37.45h-59.45v2.715h62.163V27.662h-2.713"/>
  <path fill="#FFFFFE" d="M44.986 2C21.283 2 2 21.284 2 44.987 2 68.69 21.283 87.974 44.986 87.974c23.703 0 42.987-19.284 42.987-42.987C87.973 21.284 68.69 2 44.986 2zm0 87.974C20.18 89.974 0 69.794 0 44.987 0 20.18 20.18 0 44.986 0c24.806 0 44.987 20.18 44.987 44.987 0 24.806-20.18 44.987-44.987 44.987"/>
</svg>
