<svg xmlns="http://www.w3.org/2000/svg" width="89.973" height="89.974">
  <path fill="none" d="M0 0h89.973v89.974H0z"/>
  <path fill="#1B4863" d="M41.396 75.452c-17.65-4.858-19.932-20.047-19.28-26.18.662-6.243 3.493-12.027 7.74-16.546 4.283-4.557 11.25-6.664 17.423-6.76l-.49 6.76c-7.85.122-14.43 6.67-14.3 14.84.12 7.676 6.66 15.404 14 16.023l-5.1 11.86"/>
  <path fill="#DE493F" d="M52.58 76.066l-15.777.246 2.255-7.19 11.044-.172 2.477 7.116"/>
  <path fill="#1B4863" d="M67.953 63.91L48.03 69.705l-1.53-5.267 19.92-5.795 1.533 5.267"/>
  <path fill="#FFFEFE" d="M49.06 70.76c2.08-2.487 1.748-6.19-.743-8.27-2.488-2.083-6.192-1.75-8.27.74-2.082 2.49-1.748 6.195.738 8.27 2.49 2.08 6.195 1.752 8.275-.74"/>
  <path fill="#DE493F" d="M46.567 68.68c.93-1.113.78-2.768-.332-3.697-1.112-.93-2.767-.782-3.696.33-.93 1.113-.79 2.77.33 3.696 1.11.92 2.76.78 3.69-.33m8.182-36.16c.725-.22 1.49.21 1.7.93L61.85 52c.21.724-.21 1.49-.935 1.702l-4.657 1.354c-.725.21-1.49-.21-1.702-.935l-5.398-18.54c-.21-.72.21-1.49.934-1.7l4.66-1.35"/>
  <path fill="#FFFEFE" d="M49.93 33.303c-.725.213-1.49-.21-1.7-.933l-5.4-18.546c-.21-.725.21-1.49.936-1.702l4.657-1.355c.725-.21 1.49.21 1.702.935l5.398 18.544c.21.726-.21 1.49-.934 1.703l-4.66 1.35"/>
  <path fill="#1B4863" d="M51.973 47.794c-.64.187-1.316-.186-1.503-.825l-7.373-25.34c-.186-.64.185-1.32.826-1.508l8.505-2.474c.642-.188 1.318.184 1.504.825l7.373 25.33c.187.642-.185 1.32-.826 1.505l-8.51 2.478"/>
  <path fill="#DE493F" d="M50.125 11.702c-.21-.726-.977-1.146-1.702-.935l-4.657 1.355c-.725.21-1.146.977-.935 1.702l.24.813 7.27-2.213-.21-.722"/>
  <path fill="#FFFEFE" d="M63.304 45.194c.152.52-.15 1.07-.67 1.222l-11.618 3.38c-.52.15-1.07-.152-1.222-.672l-.15-.52c-.153-.522.15-1.072.67-1.223l11.616-3.37c.528-.15 1.07.15 1.23.67l.15.524"/>
  <path fill="#1B4863" d="M65.47 78.607l-42.09.654-.072-4.6 42.09-.66.07 4.61"/>
  <path fill="#FFFEFE" d="M49.328 34.733c2.82-1.612 3.8-5.208 2.184-8.03-1.612-2.825-5.21-3.802-8.03-2.186-2.823 1.613-3.8 5.21-2.187 8.028 1.614 2.822 5.21 3.805 8.033 2.188"/>
  <path fill="#DE493F" d="M47.743 31.963c1.29-.738 1.74-2.384 1-3.676-.738-1.293-2.385-1.74-3.676-1-1.293.738-1.74 2.385-1.002 3.674.74 1.3 2.385 1.75 3.678 1.01"/>
  <path fill="#FFFFFE" d="M44.986 2C21.283 2 2 21.284 2 44.987 2 68.69 21.283 87.974 44.986 87.974c23.703 0 42.987-19.284 42.987-42.987C87.973 21.284 68.69 2 44.986 2zm0 87.974C20.18 89.974 0 69.794 0 44.987 0 20.182 20.18 0 44.986 0c24.806 0 44.987 20.182 44.987 44.987 0 24.806-20.18 44.987-44.987 44.987"/>
</svg>
