<svg xmlns="http://www.w3.org/2000/svg" width="89.973" height="89.974">
  <path fill="none" d="M0 0h89.973v89.974H0z"/>
  <path fill="#FFFFFE" d="M34.684 9.74c-8.187 0-14.824 6.638-14.824 14.825v16.778h29.65V24.565c0-8.187-6.638-14.824-14.826-14.824"/>
  <path fill="#DE493F" d="M19.86 62.12c0 8.188 6.637 14.825 14.824 14.825 8.188 0 14.825-6.637 14.825-14.825V45.343H19.86V62.12"/>
  <path fill="#1B4863" d="M19.86 41.343h29.65v4H19.86zm54.703 19c0-10.26-8.132-18.614-18.3-18.983v37.967c10.168-.37 18.3-8.724 18.3-18.983"/>
  <path fill="#FFFFFE" d="M36.56 60.344c0 10.26 8.133 18.614 18.302 18.983V41.36c-10.17.37-18.3 8.724-18.3 18.984"/>
  <path fill="#19242B" d="M55.562 41.343c-.235 0-.467.01-.7.017v37.967c.233.01.465.018.7.018.235 0 .467-.01.7-.018V41.36c-.233-.008-.465-.017-.7-.017"/>
  <path fill="#FFFFFE" d="M44.986 2C21.283 2 2 21.284 2 44.987 2 68.69 21.283 87.974 44.986 87.974c23.703 0 42.987-19.284 42.987-42.987C87.973 21.284 68.69 2 44.986 2zm0 87.974C20.18 89.974 0 69.792 0 44.987 0 20.18 20.18 0 44.986 0c24.806 0 44.987 20.18 44.987 44.987 0 24.805-20.18 44.987-44.987 44.987"/>
</svg>
