<svg xmlns="http://www.w3.org/2000/svg" width="89.974" height="89.974">
  <path fill="none" d="M0 0h89.974v89.974H0z"/>
  <path fill="#1D3E52" d="M67.97 18.603L21.938 75.44V18.603H67.97"/>
  <path fill="#1D3E52" d="M68.036 18.603V75.44h-46.1L67.97 18.603h.067"/>
  <path fill="#1B4863" d="M23.318 19.984h43.337V74.06H23.318z"/>
  <path fill="#FFFFFE" d="M24.7 21.733h40.575v51.314H24.7z"/>
  <path fill="#DE493F" d="M37.185 23.572v-5.595h2.097l-.025-.502-.007-.06c0-1.557 2.627-2.88 5.737-2.88 3.11 0 5.737 1.323 5.737 2.89l-.008.065-.028.487h2.1v5.595H37.185"/>
  <path fill="#A5B9BA" d="M26.415 27.77h18.178v18.18H26.415z"/>
  <path fill="#FFFFFE" d="M42.19 43.32c-.138-1.212-.666-2.32-1.36-3.302-.39-.553-.807-.986-1.305-1.312l-.01-.007-.023-.02c-.297-.19-.625-.35-.995-.46-.094-.03-.188-.06-.288-.08-.56-.14-1.22-.44-1.6-.85v-.79c1-.55 1.7-1.74 1.7-3.13l-.01-.036c.116-.38.182-.784.182-1.21 0-2.004-.973-3.46-3.115-3.46-1.97 0-3.114 1.456-3.114 3.46 0 .423.066.83.18 1.21v.03c0 1.355.665 2.524 1.632 3.087v.816c-.02 0-.035 0-.037.002-.045.05-.093.094-.143.14l-.054.045c-.034.03-.07.055-.105.082l-.074.052-.097.06c-.03.02-.06.04-.09.057l-.08.044c-.04.023-.077.044-.117.064v.003c-.18.087-.36.16-.54.22-.1.032-.2.062-.298.085-.496.12-.912.3-1.284.54l-.028.014-.01.003c-.497.323-.913.76-1.304 1.31-.694.982-1.223 2.09-1.36 3.3-.03.28-.04.54-.03.795h13.79c.01-.256 0-.52-.03-.795"/>
  <path fill="#A5B9BA" d="M46.126 27.77H63.56v5.06H46.125zm0 13.12H63.56v5.06H46.125zm0-6.56H63.56v5.06H46.125zM32.502 49.337h30.872v5.06H32.502z"/>
  <path fill="#20A45C" d="M28.5 53.785c-.14 0-.28-.043-.4-.133l-.99-.74c-.297-.22-.358-.64-.137-.936.22-.296.64-.357.937-.136l.456.34 1.482-1.963c.222-.296.642-.355.937-.132.296.223.354.642.132.938l-1.883 2.496c-.132.17-.332.26-.535.26"/>
  <path fill="#A5B9BA" d="M32.502 56.96h30.872v5.06H32.502z"/>
  <path fill="#20A45C" d="M28.5 61.41c-.14 0-.28-.045-.4-.134l-.99-.74c-.297-.22-.358-.64-.137-.936.22-.297.64-.358.937-.136l.456.34 1.482-1.964c.222-.296.642-.355.937-.132.296.223.354.643.132.938l-1.883 2.496c-.132.175-.332.267-.535.267"/>
  <path fill="#A5B9BA" d="M32.502 64.584h30.872v5.06H32.502z"/>
  <path fill="#20A45C" d="M28.5 69.032c-.14 0-.28-.043-.4-.133l-.99-.74c-.297-.22-.358-.64-.137-.94.22-.3.64-.36.937-.14l.456.34 1.482-1.97c.222-.298.642-.358.937-.13.296.22.354.64.132.933l-1.883 2.495c-.132.175-.332.267-.535.267"/>
  <path fill="#FFFFFE" d="M44.987 2C21.284 2 2 21.284 2 44.987 2 68.69 21.284 87.974 44.987 87.974c23.703 0 42.987-19.284 42.987-42.987C87.974 21.284 68.69 2 44.987 2zm0 87.974C20.18 89.974 0 69.794 0 44.987 0 20.18 20.18 0 44.987 0c24.805 0 44.987 20.18 44.987 44.987 0 24.806-20.182 44.987-44.987 44.987"/>
</svg>
