<svg xmlns="http://www.w3.org/2000/svg" width="146.845" height="146.845">
  <path fill="none" d="M0 0h146.845v146.845H0z"/>
  <g fill="#FFF">
    <path d="M38.572 78.84h5.82v31.508H49.9V78.84h5.93v-5.16H38.572zm46.566 3.853c-1.82 0-3.52.994-5.116 2.962V73.68h-4.95v36.668h4.95V107.7c1.657 2.045 3.354 3.025 5.116 3.025 1.97 0 3.295-1.037 3.956-3.07.332-1.16.502-2.978.502-5.507v-10.88c0-2.586-.17-4.392-.502-5.49-.66-2.05-1.988-3.085-3.956-3.085zm-.495 19.843c0 2.47-.724 3.686-2.155 3.686-.812 0-1.64-.39-2.468-1.218v-16.65c.828-.82 1.656-1.207 2.468-1.207 1.43 0 2.155 1.265 2.155 3.728v11.66zm-18.81 1.37c-1.097 1.552-2.135 2.316-3.13 2.316-.66 0-1.037-.39-1.157-1.158-.046-.16-.046-.763-.046-1.923V83.03h-4.95v21.6c0 1.93.166 3.235.436 4.065.497 1.386 1.597 2.035 3.19 2.035 1.822 0 3.69-1.1 5.658-3.356v2.98h4.955V83.026h-4.96v20.88zm4.25-46.12c1.613 0 2.387-1.28 2.387-3.833V42.34c0-2.556-.774-3.828-2.386-3.828-1.613 0-2.388 1.274-2.388 3.827v11.61c0 2.55.775 3.83 2.388 3.83z"/>
    <path d="M73.422 0C32.872 0 0 32.872 0 73.422s32.872 73.423 73.422 73.423 73.423-32.873 73.423-73.423C146.845 32.872 113.972 0 73.422 0zm8.167 34.34h4.98v20.33c0 1.173 0 1.78.06 1.945.11.775.5 1.172 1.17 1.172 1 0 2.05-.775 3.16-2.342V34.34h5v27.61h-5v-3.01c-1.99 2.284-3.89 3.39-5.72 3.39-1.61 0-2.727-.652-3.228-2.05-.274-.836-.44-2.157-.44-4.105V34.34zm-18.9 9.004c0-2.952.5-5.11 1.56-6.504 1.38-1.89 3.33-2.832 5.82-2.832 2.5 0 4.45.943 5.83 2.832 1.05 1.394 1.55 3.552 1.55 6.504v9.67c0 2.934-.5 5.11-1.55 6.492-1.388 1.883-3.33 2.825-5.84 2.825-2.495 0-4.444-.94-5.827-2.82-1.065-1.38-1.567-3.56-1.567-6.49v-9.67zM49.31 24.9l3.94 14.55 3.785-14.55h5.61l-6.673 22.047v15.006h-5.547V46.947c-.503-2.66-1.613-6.555-3.393-11.722-1.17-3.44-2.387-6.888-3.556-10.324h5.836zm63.636 87.86c-1.004 4.355-4.565 7.57-8.854 8.05-10.16 1.133-20.437 1.14-30.676 1.133-10.235.006-20.518 0-30.675-1.134-4.28-.48-7.85-3.7-8.85-8.05-1.42-6.21-1.42-12.98-1.42-19.37 0-6.39.02-13.16 1.45-19.37 1-4.36 4.56-7.57 8.85-8.05 10.16-1.14 20.44-1.14 30.68-1.14 10.24-.01 20.52 0 30.67 1.13 4.29.48 7.86 3.695 8.86 8.05 1.43 6.21 1.42 12.98 1.42 19.37 0 6.39-.005 13.16-1.434 19.362z"/>
    <path d="M100.906 82.693c-2.533 0-4.5.93-5.93 2.8-1.05 1.382-1.53 3.518-1.53 6.437v9.57c0 2.905.538 5.056 1.592 6.424 1.43 1.866 3.4 2.8 5.99 2.8 2.586 0 4.616-.98 5.986-2.963.6-.87.992-1.87 1.157-2.96.05-.49.11-1.59.11-3.19v-.72h-5.05c0 1.98-.06 3.09-.1 3.35-.28 1.33-.99 1.99-2.21 1.99-1.7 0-2.53-1.26-2.53-3.79v-4.85h9.908v-5.66c0-2.92-.496-5.05-1.534-6.43-1.384-1.86-3.353-2.79-5.84-2.79zm2.422 10.774h-4.952V90.94c0-2.528.83-3.792 2.485-3.792 1.64 0 2.47 1.265 2.47 3.79v2.53z"/>
  </g>
</svg>
