<svg xmlns="http://www.w3.org/2000/svg" width="157.499" height="182.063">
  <path fill="none" d="M0 0h157.5v182.063H0z"/>
  <defs>
    <linearGradient id="b" x1="-1.03" x2="159.096" y1="140.141" y2="135.807" gradientUnits="userSpaceOnUse">
      <stop offset="0" stop-color="#FFFFFE"/>
      <stop offset=".5" stop-color="#E0A48C"/>
      <stop offset="1" stop-color="#C55D48"/>
    </linearGradient>
    <clipPath id="a">
      <path d="M156.5 91.86c.165 1.79.274 3.59.322 5.398.594 21.89-7.533 43.12-22.592 59.018-15.057 15.898-35.817 25.163-57.704 25.757-21.89.592-43.12-7.534-59.02-22.593-7.3-6.915-13.2-15.03-17.506-23.91 3.582 5.452 7.807 10.518 12.62 15.075 16.42 15.557 38.352 23.95 60.962 23.338 22.61-.613 44.054-10.184 59.61-26.606 14.292-15.09 22.54-34.83 23.307-55.476z"/>
    </clipPath>
  </defs>
  <path fill="#C96650" d="M29.676 17.943C46.468 5.24 72.324-1.693 88.446.355L84.996 92.3 7.446 43.478c5.51-9.864 13.042-18.585 22.23-25.534"/>
  <path fill="#AF2127" d="M10.82 59.144C19.77 39.28 36.235 23.802 56.592 16.12c20.357-7.68 44.515-6.05 64.355 2.955 1.987.9 8.458 4.688 10.273 6.178L85.016 92.387 3.57 92.38c.112-11.276 2.535-22.768 7.25-33.236"/>
  <g clip-path="url(#a)">
    <path fill="url(#b)" d="M76.526 182.033c-21.89.592-43.12-7.534-59.02-22.593-7.3-6.915-13.2-15.03-17.506-23.91 3.582 5.452 7.807 10.518 12.62 15.075 16.42 15.557 38.352 23.95 60.962 23.338 22.61-.613 44.054-10.184 59.61-26.606 14.292-15.09 22.54-34.83 23.307-55.476.16 1.79.27 3.59.32 5.4.59 21.89-7.538 43.12-22.59 59.02-15.06 15.9-35.82 25.166-57.71 25.76z"/>
  </g>
  <path fill="#FFFFFE" d="M157.5 92.232c0 39.59-32.312 71.72-72.123 71.72-39.81 0-72.12-32.13-72.12-71.72 0-39.59 32.31-71.72 72.12-71.72S157.5 52.64 157.5 92.23"/>
</svg>
