<svg xmlns="http://www.w3.org/2000/svg" width="89.974" height="89.974">
  <path fill="none" d="M0 0h89.974v89.974H0z"/>
  <path fill="#1B4863" d="M35.588 67.278l-5.435 14.268-.518-.19 6.732-18.783.888.328-1.667 4.38"/>
  <path fill="#DE493F" d="M34.954 42.346l-6.06 16.475 6.876 7.15 9.87-.99 6.05-16.45.01-.02-16.746-6.16"/>
  <path fill="#FFFFFE" d="M29.174 58.686l6.71 6.977 9.63-.966 13.148-35.743-16.34-6.01-13.148 35.742zm5.916 9.134c-.153-.056-.293-.147-.41-.267l-7.547-7.85c-.288-.3-.38-.738-.237-1.13l13.76-37.402c.206-.56.832-.85 1.396-.64l18.382 6.76c.564.21.853.84.646 1.4l-13.76 37.4c-.142.39-.497.67-.91.71l-10.837 1.08c-.166.02-.332 0-.484-.06"/>
  <path fill="#FFFFFE" d="M61.512 18.14l-13.615-5.002-3.298 8.985 13.61 5 3.3-8.984"/>
  <path fill="#FFFFFE" d="M46.06 6.65l-2.286 6.213 21.06 7.746 2.284-6.22L46.06 6.65m19.528 20.267l-26.703-9.835-1.902 5.16 26.705 9.835 1.9-5.16m-20.59 18.02l-.214.575 4.48 1.654.213-.572-4.48-1.657m-5.367 14.52l-.213.573 4.48 1.658.21-.575-4.478-1.655m5.14-10.476l-.22.573 2.24.827.213-.574-2.24-.826m-2.68 7.258l-.214.574 2.24.827.21-.57-2.24-.83m1.342-3.63l-.215.58 2.24.83.213-.57-2.24-.83m6.93-22.19l-.21.57 4.48 1.66.21-.573-4.48-1.655m-.22 4.04l-.21.574 2.24.825.21-.573-2.24-.83m-2.682 7.26l-.213.576 2.24.828.213-.573-2.24-.83m1.342-3.63l-.21.576 2.24.825.212-.573-2.24-.83"/>
  <path fill="#FFFFFE" d="M44.987 2C21.284 2 2 21.284 2 44.987 2 68.69 21.284 87.974 44.987 87.974c23.703 0 42.987-19.284 42.987-42.987C87.974 21.284 68.69 2 44.987 2zm0 87.974C20.18 89.974 0 69.794 0 44.987 0 20.18 20.18 0 44.987 0c24.805 0 44.987 20.18 44.987 44.987 0 24.806-20.182 44.987-44.987 44.987"/>
</svg>
