<svg xmlns="http://www.w3.org/2000/svg" width="49.16" height="49.16">
  <path fill="none" d="M0 0h49.16v49.16H0z"/>
  <path fill="#FFF" d="M39.51 49.16c-2.045 0-4.515-.513-7.232-1.538-5.956-2.245-12.436-6.683-18.246-12.494-5.812-5.812-10.25-12.293-12.497-18.25-2.042-5.414-2.047-9.86-.012-11.893.293-.292.59-.607.898-.93C4.28 2.1 6.38-.095 9.16.002c1.917.08 3.774 1.27 5.675 3.636 5.62 6.987 3.086 9.477.154 12.364l-.52.513c-.48.48-1.387 2.7 7.042 11.13 2.752 2.75 5.098 4.765 6.973 5.983 1.18.768 3.292 1.928 4.16 1.062l.52-.526c2.883-2.925 5.373-5.45 12.356.164 2.368 1.9 3.557 3.757 3.636 5.676.115 2.78-2.1 4.883-4.054 6.738-.32.308-.635.605-.928.896-1.01 1.012-2.626 1.52-4.66 1.52zM8.96 1.653c-1.977 0-3.76 1.88-5.34 3.54-.318.335-.625.66-.928.96-1.516 1.516-1.362 5.496.39 10.144 2.167 5.74 6.47 12.014 12.12 17.664 5.65 5.65 11.92 9.956 17.662 12.12 4.648 1.756 8.628 1.905 10.14.39.303-.302.627-.61.96-.925 1.7-1.614 3.626-3.442 3.54-5.47-.057-1.395-1.072-2.895-3.016-4.457-5.82-4.68-7.446-3.028-10.145-.29l-.53.533c-1.288 1.29-3.383 1.004-6.227-.845-1.973-1.283-4.41-3.37-7.24-6.202-6.997-6.994-9.234-11.275-7.045-13.47l.53-.52c2.746-2.7 4.4-4.327-.28-10.15-1.57-1.942-3.066-2.956-4.46-3.016-.043-.002-.086-.002-.13-.002z"/>
</svg>
