<svg xmlns="http://www.w3.org/2000/svg" width="66.655" height="47.387">
  <path fill="none" d="M0 0h66.655v47.387H0z"/>
  <g fill="#FFF">
    <path d="M53.968 36.6c-.265 0-.53-.098-.735-.293L40.865 24.705c-.432-.405-.453-1.086-.047-1.518.406-.436 1.083-.456 1.52-.047l12.367 11.602c.432.404.454 1.085.047 1.517-.212.22-.496.34-.784.34zm-41.283 0c-.285 0-.57-.115-.784-.34-.4-.433-.38-1.114.05-1.518L24.32 23.14c.434-.404 1.115-.387 1.52.047.406.432.384 1.113-.048 1.518L13.42 36.307c-.206.195-.47.292-.735.292z"/>
    <path d="M61.282 47.387H5.372c-2.96 0-5.372-2.41-5.372-5.374V5.373C0 2.41 2.412 0 5.373 0h55.91c2.96 0 5.372 2.41 5.372 5.373v36.64c0 2.964-2.41 5.374-5.373 5.374zM5.372 2.15c-1.776 0-3.223 1.446-3.223 3.223v36.64c0 1.778 1.44 3.224 3.22 3.224h55.91c1.774 0 3.22-1.446 3.22-3.224V5.373c0-1.777-1.446-3.224-3.224-3.224H5.372z"/>
    <path d="M33.328 29.094c-1.43 0-2.86-.475-3.946-1.423L1.784 3.6c-.447-.39-.494-1.068-.105-1.518.39-.448 1.07-.488 1.51-.104l27.6 24.074c1.372 1.196 3.693 1.196 5.065 0L63.42 2.012c.445-.39 1.122-.345 1.517.104.39.45.343 1.126-.104 1.518L37.273 27.67c-1.09.95-2.516 1.424-3.945 1.424z"/>
  </g>
</svg>
