<svg xmlns="http://www.w3.org/2000/svg" width="122.244" height="65.986">
  <path fill="none" d="M0 0h122.244v65.986H0z"/>
  <defs>
    <clipPath id="a">
      <path d="M0 65.986h122.244V0H0z"/>
    </clipPath>
  </defs>
  <path fill="#009F60" d="M109.72 34.81c0 8.384-7 15.183-15.64 15.183H17.106c-8.636 0-15.64-6.8-15.64-15.184 0-8.39 7.004-15.18 15.64-15.18H94.08c8.64 0 15.64 6.79 15.64 15.18"/>
  <path fill="#FFFFFE" d="M71.357 37.955c-1.783 0-3.226-1.445-3.226-3.227 0-1.78 1.45-3.226 3.23-3.226s3.23 1.445 3.23 3.226c0 1.782-1.44 3.227-3.22 3.227m0-11.787c-4.72 0-8.56 3.833-8.56 8.56 0 4.728 3.84 8.56 8.56 8.56s8.56-3.832 8.56-8.56c0-4.727-3.83-8.56-8.56-8.56m-9.89 3.98c-1.52-2.392-4.19-3.98-7.23-3.98-4.72 0-8.56 3.834-8.56 8.56 0 4.73 3.84 8.56 8.56 8.56 2.22 0 4.24-.84 5.76-2.22l.01.003 1.847 2.04.006.01v-7.97h-7.22l.007.01 1.77 1.96c-.57.52-1.334.84-2.17.84-1.78 0-3.226-1.44-3.226-3.22s1.44-3.23 3.22-3.23c1.16 0 2.17.61 2.74 1.52h-.003l4.5-2.88z"/>
  <path fill="#DB352A" d="M32.954 13.136h11.118L38.51 24.882z"/>
  <path fill="none" stroke="#FFFFFE" stroke-width=".884" d="M33.454 13.636h11.118L39.01 25.382l-5.556-11.746z"/>
  <g clip-path="url(#a)">
    <path fill="#FFFFFE" d="M19.305 26.72h-6.46l6.813 16.2h4.385l6.582-15.542 4.736 8.03v7.513h6.06v-7.53l5.66-8.66H40.5l-1.97 3.42-1.975-3.42h-12.25l-2.366 5.92zm62.748-.03v16.194h5.266v-5.847l3.68 5.92h6.31V26.683h-5.13v6.4l-4.17-6.394z"/>
    <path fill="#FFF" d="M61.63 65.422L56.712 54.63l.925-.14 4.008 8.804 4.147-8.85.894.232zm8.757-.88c1.187 0 1.99-.816 1.99-1.99 0-1.154-.803-1.986-1.975-1.986-1.25 0-2.05.894-2.05 1.988 0 1.095.817 1.99 2.035 1.99m-.108.83c-1.58 0-2.83-1.263-2.83-2.82s1.26-2.82 2.82-2.82c.77 0 1.51.307 2.06.893v-.97c0-1.05-.51-1.558-1.65-1.558-.71 0-1.48.21-2.41.6l.34-1.01c.77-.26 1.49-.39 2.15-.39 1.71 0 2.42.78 2.42 2.42v5.46l-.82.12v-.9c-.6.63-1.29.95-2.11.95m5.38-10.95l.88-.126v10.89l-.88.122zm5.983 10.96c-1.65 0-2.698-1.035-2.698-2.96v-4.9l.86-.11V62c0 1.772.662 2.666 2.034 2.666 1.19 0 2.315-1.002 2.315-2.358v-4.795l.862-.108v7.785l-.864.11v-1.312c-.648.94-1.48 1.403-2.51 1.403M92.983 59c-.434-.524-1.097-.802-1.945-.802-1.73 0-3.16 1.34-3.16 3.145 0 .14 0 .37.03.678zm-1.944 6.38c-2.358 0-4.07-1.758-4.07-4.025 0-2.296 1.76-4.008 4.07-4.008 1.47 0 2.59.648 3.21 1.85l-6.03 3.562c.57 1.11 1.603 1.72 2.82 1.72 1.064 0 1.974-.46 3.053-1.31v1.11c-.987.72-1.958 1.09-3.053 1.09m10.04-10.75l.94-.11v9.74h3.747l-.327.92h-4.362zm6.274 2.88l.88-.11v7.78l-.88.13zm.432-3.21l.66.71-.66.78-.65-.71zm3.36 4.04h-1.11l.24-.84h.86c0-.12-.018-.26-.018-.37 0-2.034.83-2.944 2.68-2.944h.27l.25.782c-.107 0-.215-.02-.31-.02-1.46 0-2.02.6-2.02 2.124 0 .12 0 .26.02.414h2.002v.835h-2.003v6.847l-.865.11zm9.83.64c-.43-.52-1.1-.8-1.94-.8-1.73 0-3.16 1.34-3.16 3.144 0 .14 0 .37.03.677zm-1.94 6.383c-2.36 0-4.07-1.758-4.07-4.025 0-2.298 1.76-4.01 4.07-4.01 1.46 0 2.59.65 3.21 1.85l-6.03 3.562c.57 1.11 1.6 1.722 2.82 1.722 1.06 0 1.97-.46 3.05-1.31v1.11c-.99.725-1.96 1.094-3.05 1.094"/>
  </g>
</svg>
